<svg xmlns="http://www.w3.org/2000/svg" viewBox="0 0 800 800"><defs><clipPath clipPathUnits="userSpaceOnUse" id="a"><path d="M0 600h600V0H0Z"/></clipPath></defs><g clip-path="url(#a)" transform="matrix(1.33333 0 0 -1.33333 0 800)"><path d="M377.03 337.54c-5.2.58-10.21.08-14.86-1.28L169.3 480.79H119.2V119.21h236.13l-60.32 45.2H164.4v256.24a3.66 3.66 0 0 0 5.85 2.93L335.1 300.07a37.67 37.67 0 1 1 75.15 3.8 37.8 37.8 0 0 1-33.22 33.67" fill="#fafafa"/><path d="M222.98 262.46c5.2-.58 10.2-.08 14.85 1.28L430.7 119.21h50.08v361.58H244.66l60.32-45.2h130.61V178.8a3.38 3.38 0 0 0-5.4-2.7L264.9 299.92a37.67 37.67 0 1 1-75.14-3.83 37.79 37.79 0 0 1 33.22-33.64" fill="#58d02a"/></g></svg>